<?xml version="1.0" encoding="utf-8"?>
<!-- Generator: Adobe Illustrator 26.3.1, SVG Export Plug-In . SVG Version: 6.00 Build 0)  -->
<svg version="1.1" id="레이어_1" xmlns="http://www.w3.org/2000/svg" xmlns:xlink="http://www.w3.org/1999/xlink" x="0px"
	 y="0px" viewBox="0 0 26.3 21.5" style="enable-background:new 0 0 26.3 21.5;" xml:space="preserve">
<style type="text/css">
	.st0{fill:none;}
	.st1{fill:none;stroke:#000000;stroke-miterlimit:10;}
</style>
<g>
	<rect x="0.4" y="-2.1" class="st0" width="25.3" height="25.3"/>
	<g>
		<path class="st1" d="M0.6,7.2C0.6,8.6,1,9.9,1.8,11c0.3,0.5,0.8,0.9,1.2,1.3l1,0.9l9.3,7.7l9-7.7l0.9-0.9c1.5-1.2,2.5-3.1,2.5-5.1
			c0-3.6-2.9-6.6-6.6-6.6c-2.6,0-4.8,1.4-5.9,3.7l-0.2,0.3l-0.2-0.3C11.8,2.1,9.6,0.6,7,0.6C3.5,0.6,0.6,3.5,0.6,7.2"/>
	</g>
</g>
</svg>
